# xmcd
#
# Track frame offsets:
#	150
#	23460
#	52841
#	78599
#	99533
#	139680
#	161315
#	185973
#	209931
#	239240
#	263532
#	281784
#	316788
#
# Disc length: 4368 seconds
#
# Revision: 1
# Processed by: cddbd v1.5.2PL0 Copyright (c) Steve Scherf et al.
# Submitted via: audiograbber 1.81.02
#
DISCID=b8110e0d
DTITLE=Magic Slim and the Teardrops - 44 Blues
DYEAR=1993
DGENRE=Blues
TTITLE0=Big Fat Woman
TTITLE1=Baby Can't You See
TTITLE2=You Put It On Me
TTITLE3=I'm Ready
TTITLE4=Blues With A Felling
TTITLE5=Tell Me
TTITLE6=When I Met My Baby
TTITLE7=Can't You See
TTITLE8=Highway Is My Home
TTITLE9=I'm Good
TTITLE10=I'm Tore Upo
TTITLE11=44 Blues
TTITLE12=Break Song
EXTD=
EXTT0=
EXTT1=
EXTT2=
EXTT3=
EXTT4=
EXTT5=
EXTT6=
EXTT7=
EXTT8=
EXTT9=
EXTT10=
EXTT11=
EXTT12=
PLAYORDER=
